<?xml version="1.0" encoding="utf-8"?>
<!-- Generator: Adobe Illustrator 16.0.3, SVG Export Plug-In . SVG Version: 6.00 Build 0)  -->
<!DOCTYPE svg PUBLIC "-//W3C//DTD SVG 1.1//EN" "http://www.w3.org/Graphics/SVG/1.1/DTD/svg11.dtd">
<svg version="1.1" id="Layer_1" xmlns="http://www.w3.org/2000/svg" xmlns:xlink="http://www.w3.org/1999/xlink" x="0px" y="0px"
	 width="200px" height="200px" viewBox="0 0 200 200" enable-background="new 0 0 200 200" xml:space="preserve">
<g>
	<g>
		<path fill-rule="evenodd" clip-rule="evenodd" fill="#FFFFFF" d="M144.826,151.782c0,11.432-9.262,20.693-20.686,20.693
			c-11.426,0-20.693-9.262-20.693-20.693c0-11.424,9.268-20.687,20.693-20.687C135.564,131.096,144.826,140.358,144.826,151.782z"/>
	</g>
	<g>
		<path fill-rule="evenodd" clip-rule="evenodd" fill="#FFFFFF" d="M88.945,49.32c0,23.76-19.25,43.012-42.996,43.012
			C22.21,92.332,2.965,73.08,2.965,49.32c0-23.752,19.245-43.014,42.984-43.014C69.694,6.307,88.945,25.568,88.945,49.32z"/>
	</g>
	<g>
		<path fill="#FFFFFF" d="M144.652,179.83c-5.693,4.329-12.666,6.917-20.24,6.917c-19.008,0-34.468-16.134-34.468-35.969
			c0-3.674,0.537-7.221,1.526-10.563c-9.294-10.505-17.288-22.278-23.884-34.934c-7.539,3.161-15.832,4.91-24.521,4.91
			c-15.214,0-29.329-5.352-40.106-14.271v63.821c0,20.704,16.719,37.257,36.554,37.257h124.348c6.289,0,12.23-1.829,17.426-4.704
			C168.383,189.489,156.146,185.169,144.652,179.83z"/>
	</g>
	<g>
		<path fill="#FFFFFF" d="M196.957,159.742v-90.86c-21.555,8.991-45.258,12.292-66.746,12.292c-11.633,0-22.064-1-32.225-2.531
			c-3.627,6.203-8.283,11.743-13.725,16.378c5.005,9.673,11.163,19.041,18.37,27.756c5.906-4.972,13.521-7.963,21.684-7.963
			c19.006,0,34.516,16.129,34.516,35.965c0,4.302-0.732,8.409-2.068,12.235c12.115,5.154,24.01,8.973,38.939,11.097
			C197.521,169.715,196.957,164.874,196.957,159.742z"/>
	</g>
	<g>
		<path fill="#FFFFFF" d="M163.867,3.001H89.792c10.441,10.777,16.823,26.732,16.823,43.35c0,4.494-0.432,9.008-1.316,13.237
			c27.396,3.276,59.326,1.4,91.658-12.772V35.763C196.957,15.065,183.707,3.001,163.867,3.001z"/>
	</g>
</g>
</svg>
